<svg width="280" height="560" viewBox="0 0 280 560" xmlns="http://www.w3.org/2000/svg">
  <defs>
    <clipPath id="screenClip">
      <rect x="12" y="20" width="256" height="496" rx="28"/>
    </clipPath>
  </defs>
  <!-- device body -->
  <rect x="2" y="2" width="276" height="556" rx="38" fill="#1C1C1E" stroke="#3A3A3C" stroke-width="1.5"/>
  <rect x="10" y="18" width="260" height="500" rx="30" fill="#0F0F0F"/>
  <!-- notch -->
  <rect x="95" y="18" width="90" height="22" rx="0 0 11 11" fill="#1C1C1E"/>
  <!-- screen content -->
  <g clip-path="url(#screenClip)">
    
  <!-- top bar -->
  <rect x="12" y="20" width="256" height="56" fill="#E8621A"/>
  <!-- logo -->
  <circle cx="32" cy="48" r="14" fill="rgba(255,255,255,.2)"/>
  <circle cx="32" cy="48" r="11" fill="white"/>
  <ellipse cx="32" cy="44" rx="5" ry="5" fill="#E8621A"/>
  <circle cx="32" cy="44" r="2.5" fill="white"/>
  <line x1="32" y1="49" x2="32" y2="57" stroke="#1a1a1a" stroke-width="2"/>
  <text x="52" y="43" font-family="system-ui,sans-serif" font-size="12" font-weight="800" fill="white">Prayaas Book Bank</text>
  <text x="52" y="56" font-family="system-ui,sans-serif" font-size="8.5" fill="rgba(255,255,255,.8)">Student Catalogue</text>
  <!-- cart icon with badge -->
  <text x="245" y="52" text-anchor="middle" font-size="18">🛒</text>
  <circle cx="256" cy="35" r="8" fill="white"/>
  <text x="256" y="39" text-anchor="middle" font-family="system-ui,sans-serif" font-size="8.5" font-weight="800" fill="#E8621A">2</text>
  <!-- search bar -->
  <rect x="12" y="76" width="256" height="36" fill="#E8621A"/>
  <rect x="20" y="80" width="240" height="28" rx="12" fill="rgba(255,255,255,.18)"/>
  <text x="34" y="98" font-size="13">🔍</text>
  <text x="52" y="98" font-family="system-ui,sans-serif" font-size="10" fill="rgba(255,255,255,.65)">Search by title, author…</text>
  <!-- section -->
  <text x="20" y="128" font-family="system-ui,sans-serif" font-size="12" font-weight="700" fill="#F0F0F0">All Books</text>
  <text x="20" y="142" font-family="system-ui,sans-serif" font-size="8.5" fill="#A0A0A0">Tap a book to view details</text>
  
  <rect x="14" y="148" width="252" height="66" rx="11" fill="#1E1E1E" stroke="#2A2A2A" stroke-width=".5"/>
  <rect x="22" y="156" width="40" height="52" rx="7" fill="#3949AB"/>
  <text x="42" y="176" text-anchor="middle" font-family="system-ui,sans-serif" font-size="7" font-weight="700" fill="white">Data Structu</text>
  <text x="70" y="170" font-family="system-ui,sans-serif" font-size="9.5" font-weight="700" fill="#F0F0F0">Data Structures & Algori</text>
  <text x="70" y="183" font-family="system-ui,sans-serif" font-size="8" fill="#A0A0A0">Cormen</text>
  <rect x="70" y="188" width="52" height="14" rx="7" fill="#1B3A1C"/>
  <text x="96" y="199" text-anchor="middle" font-family="system-ui,sans-serif" font-size="7.5" font-weight="600" fill="#81C784">● 4 avail</text>
  <rect x="188" y="188" width="64" height="18" rx="9" fill="#E8621A"/>
  <text x="220" y="201" text-anchor="middle" font-family="system-ui,sans-serif" font-size="8" font-weight="600" fill="white">+ Add</text>

  <rect x="14" y="220" width="252" height="66" rx="11" fill="#1E1E1E" stroke="#2A2A2A" stroke-width=".5"/>
  <rect x="22" y="228" width="40" height="52" rx="7" fill="#00897B"/>
  <text x="42" y="248" text-anchor="middle" font-family="system-ui,sans-serif" font-size="7" font-weight="700" fill="white">Operating Sy</text>
  <text x="70" y="242" font-family="system-ui,sans-serif" font-size="9.5" font-weight="700" fill="#F0F0F0">Operating System Concept</text>
  <text x="70" y="255" font-family="system-ui,sans-serif" font-size="8" fill="#A0A0A0">Silberschatz</text>
  <rect x="70" y="260" width="52" height="14" rx="7" fill="#3A2800"/>
  <text x="96" y="271" text-anchor="middle" font-family="system-ui,sans-serif" font-size="7.5" font-weight="600" fill="#FFB74D">● 1 left</text>
  <rect x="188" y="260" width="64" height="18" rx="9" fill="#E8621A"/>
  <text x="220" y="273" text-anchor="middle" font-family="system-ui,sans-serif" font-size="8" font-weight="600" fill="white">+ Add</text>

  <rect x="14" y="292" width="252" height="66" rx="11" fill="#1E1E1E" stroke="#2A2A2A" stroke-width=".5"/>
  <rect x="22" y="300" width="40" height="52" rx="7" fill="#C62828"/>
  <text x="42" y="320" text-anchor="middle" font-family="system-ui,sans-serif" font-size="7" font-weight="700" fill="white">Computer Net</text>
  <text x="70" y="314" font-family="system-ui,sans-serif" font-size="9.5" font-weight="700" fill="#F0F0F0">Computer Networks</text>
  <text x="70" y="327" font-family="system-ui,sans-serif" font-size="8" fill="#A0A0A0">Tanenbaum</text>
  <rect x="70" y="332" width="52" height="14" rx="7" fill="#1B3A1C"/>
  <text x="96" y="343" text-anchor="middle" font-family="system-ui,sans-serif" font-size="7.5" font-weight="600" fill="#81C784">● 6 avail</text>
  <rect x="188" y="332" width="64" height="18" rx="9" fill="#E8621A"/>
  <text x="220" y="345" text-anchor="middle" font-family="system-ui,sans-serif" font-size="8" font-weight="600" fill="white">✓ Added</text>

  <rect x="14" y="364" width="252" height="66" rx="11" fill="#1E1E1E" stroke="#2A2A2A" stroke-width=".5"/>
  <rect x="22" y="372" width="40" height="52" rx="7" fill="#6A1B9A"/>
  <text x="42" y="392" text-anchor="middle" font-family="system-ui,sans-serif" font-size="7" font-weight="700" fill="white">Database Sys</text>
  <text x="70" y="386" font-family="system-ui,sans-serif" font-size="9.5" font-weight="700" fill="#F0F0F0">Database System Concepts</text>
  <text x="70" y="399" font-family="system-ui,sans-serif" font-size="8" fill="#A0A0A0">Korth</text>
  <rect x="70" y="404" width="52" height="14" rx="7" fill="#3A0000"/>
  <text x="96" y="415" text-anchor="middle" font-family="system-ui,sans-serif" font-size="7.5" font-weight="600" fill="#EF5350">● No stock</text>
  <rect x="188" y="404" width="64" height="18" rx="9" fill="#2A2A2A"/>
  <text x="220" y="417" text-anchor="middle" font-family="system-ui,sans-serif" font-size="8" font-weight="600" fill="#666666">N/A</text>

  <!-- bottom nav -->
  <rect x="12" y="480" width="256" height="36" fill="#1E1E1E" stroke="#2A2A2A" stroke-width=".5"/>
  <text x="46" y="501" text-anchor="middle" font-size="14">📚</text>
  <text x="46" y="512" text-anchor="middle" font-family="system-ui,sans-serif" font-size="7" fill="#E8621A">Catalogue</text>
  <text x="94" y="501" text-anchor="middle" font-size="14">🛒</text>
  <text x="94" y="512" text-anchor="middle" font-family="system-ui,sans-serif" font-size="7" fill="#666666">Cart</text>
  <text x="142" y="501" text-anchor="middle" font-size="14">📋</text>
  <text x="142" y="512" text-anchor="middle" font-family="system-ui,sans-serif" font-size="7" fill="#666666">Orders</text>
  <text x="190" y="501" text-anchor="middle" font-size="14">👤</text>
  <text x="190" y="512" text-anchor="middle" font-family="system-ui,sans-serif" font-size="7" fill="#666666">Profile</text>

  </g>
</svg>