<svg width="280" height="560" viewBox="0 0 280 560" xmlns="http://www.w3.org/2000/svg">
  <defs>
    <clipPath id="screenClip">
      <rect x="12" y="20" width="256" height="496" rx="28"/>
    </clipPath>
  </defs>
  <!-- device body -->
  <rect x="2" y="2" width="276" height="556" rx="38" fill="#1C1C1E" stroke="#3A3A3C" stroke-width="1.5"/>
  <rect x="10" y="18" width="260" height="500" rx="30" fill="#0F0F0F"/>
  <!-- notch -->
  <rect x="95" y="18" width="90" height="22" rx="0 0 11 11" fill="#1C1C1E"/>
  <!-- screen content -->
  <g clip-path="url(#screenClip)">
    
  <rect x="12" y="20" width="256" height="50" fill="#E8621A"/>
  <rect x="18" y="30" width="24" height="24" rx="12" fill="rgba(255,255,255,.2)"/>
  <text x="30" y="46" text-anchor="middle" font-size="16" fill="white">‹</text>
  <text x="55" y="40" font-family="system-ui,sans-serif" font-size="13" font-weight="800" fill="white">My Cart</text>
  <text x="55" y="55" font-family="system-ui,sans-serif" font-size="9" fill="rgba(255,255,255,.8)">3 books selected</text>
  <text x="20" y="96" font-family="system-ui,sans-serif" font-size="11" font-weight="700" fill="#F0F0F0">Selected Books</text>
  <text x="20" y="110" font-family="system-ui,sans-serif" font-size="8" fill="#A0A0A0">Tap a book to view details, or remove</text>
  
  <rect x="14" y="120" width="252" height="54" rx="11" fill="#1E1E1E" stroke="#2A2A2A" stroke-width=".5"/>
  <rect x="22" y="128" width="32" height="44" rx="5" fill="#3949AB"/>
  <text x="74" y="146" font-family="system-ui,sans-serif" font-size="9.5" font-weight="700" fill="#F0F0F0">Data Structures & Algorith</text>
  <text x="74" y="160" font-family="system-ui,sans-serif" font-size="8" fill="#A0A0A0">Cormen</text>
  <rect x="226" y="136" width="26" height="26" rx="7" fill="#3A0000"/>
  <text x="239" y="153" text-anchor="middle" font-family="system-ui,sans-serif" font-size="15" font-weight="700" fill="#EF5350">×</text>

  <rect x="14" y="180" width="252" height="54" rx="11" fill="#1E1E1E" stroke="#2A2A2A" stroke-width=".5"/>
  <rect x="22" y="188" width="32" height="44" rx="5" fill="#C62828"/>
  <text x="74" y="206" font-family="system-ui,sans-serif" font-size="9.5" font-weight="700" fill="#F0F0F0">Computer Networks</text>
  <text x="74" y="220" font-family="system-ui,sans-serif" font-size="8" fill="#A0A0A0">Tanenbaum</text>
  <rect x="226" y="196" width="26" height="26" rx="7" fill="#3A0000"/>
  <text x="239" y="213" text-anchor="middle" font-family="system-ui,sans-serif" font-size="15" font-weight="700" fill="#EF5350">×</text>

  <rect x="14" y="240" width="252" height="54" rx="11" fill="#1E1E1E" stroke="#2A2A2A" stroke-width=".5"/>
  <rect x="22" y="248" width="32" height="44" rx="5" fill="#1565C0"/>
  <text x="74" y="266" font-family="system-ui,sans-serif" font-size="9.5" font-weight="700" fill="#F0F0F0">Engineering Mathematics</text>
  <text x="74" y="280" font-family="system-ui,sans-serif" font-size="8" fill="#A0A0A0">Grewal</text>
  <rect x="226" y="256" width="26" height="26" rx="7" fill="#3A0000"/>
  <text x="239" y="273" text-anchor="middle" font-family="system-ui,sans-serif" font-size="15" font-weight="700" fill="#EF5350">×</text>

  <!-- email notice -->
  <rect x="14" y="306" width="252" height="44" rx="10" fill="#3A1800"/>
  <text x="26" y="330" font-size="13">📧</text>
  <text x="44" y="323" font-family="system-ui,sans-serif" font-size="8.5" fill="#FFB74D">Confirmation email will be sent</text>
  <text x="44" y="336" font-family="system-ui,sans-serif" font-size="8" fill="#A0A0A0">after checkout with all book details.</text>
  <!-- footer -->
  <rect x="12" y="440" width="256" height="76" fill="#1E1E1E" stroke="#2A2A2A" stroke-width=".5"/>
  <text x="20" y="466" font-family="system-ui,sans-serif" font-size="10" fill="#A0A0A0">Books to check out:</text>
  <text x="256" y="468" text-anchor="end" font-family="system-ui,sans-serif" font-size="22" font-weight="800" fill="#E8621A">3</text>
  <rect x="20" y="474" width="236" height="36" rx="12" fill="#E8621A"/>
  <text x="138" y="497" text-anchor="middle" font-family="system-ui,sans-serif" font-size="12" font-weight="700" fill="white">Proceed to Checkout →</text>

  </g>
</svg>