<svg width="280" height="560" viewBox="0 0 280 560" xmlns="http://www.w3.org/2000/svg">
  <defs>
    <clipPath id="screenClip">
      <rect x="12" y="20" width="256" height="496" rx="28"/>
    </clipPath>
  </defs>
  <!-- device body -->
  <rect x="2" y="2" width="276" height="556" rx="38" fill="#1C1C1E" stroke="#3A3A3C" stroke-width="1.5"/>
  <rect x="10" y="18" width="260" height="500" rx="30" fill="#0F0F0F"/>
  <!-- notch -->
  <rect x="95" y="18" width="90" height="22" rx="0 0 11 11" fill="#1C1C1E"/>
  <!-- screen content -->
  <g clip-path="url(#screenClip)">
    
  <rect x="12" y="20" width="256" height="50" fill="#E8621A"/>
  <rect x="18" y="30" width="24" height="24" rx="12" fill="rgba(255,255,255,.2)"/>
  <text x="30" y="46" text-anchor="middle" font-size="16" fill="white">‹</text>
  <text x="55" y="40" font-family="system-ui,sans-serif" font-size="13" font-weight="800" fill="white">Inventory</text>
  <text x="55" y="55" font-family="system-ui,sans-serif" font-size="9" fill="rgba(255,255,255,.8)">Manage book catalogue</text>
  <text x="242" y="47" text-anchor="middle" font-size="18">⬛</text>
  <!-- search -->
  <rect x="12" y="70" width="256" height="36" fill="#E8621A"/>
  <rect x="20" y="74" width="240" height="26" rx="11" fill="rgba(255,255,255,.18)"/>
  <text x="34" y="91" font-size="12">🔍</text>
  <text x="50" y="91" font-family="system-ui,sans-serif" font-size="9.5" fill="rgba(255,255,255,.6)">Search books…</text>
  <text x="20" y="108" font-family="system-ui,sans-serif" font-size="10" font-weight="700" fill="#F0F0F0">Book Catalogue</text>
  
  <rect x="14" y="112" width="252" height="64" rx="12" fill="#1E1E1E" stroke="#2A2A2A" stroke-width=".5"/>
  <rect x="22" y="120" width="38" height="50" rx="7" fill="#3949AB"/>
  <text x="41" y="142" text-anchor="middle" font-family="system-ui,sans-serif" font-size="7" font-weight="700" fill="rgba(255,255,255,.9)">Data Str</text>
  <text x="68" y="134" font-family="system-ui,sans-serif" font-size="9.5" font-weight="700" fill="#F0F0F0">Data Structures</text>
  <text x="68" y="147" font-family="system-ui,sans-serif" font-size="8" fill="#A0A0A0">Cormen</text>
  <rect x="68" y="152" width="130" height="6" rx="3" fill="#2A2A2A"/>
  <rect x="68" y="152" width="86" height="6" rx="3" fill="#4CAF50"/>
  <text x="208" y="159" font-family="system-ui,sans-serif" font-size="8" font-weight="700" fill="#4CAF50">4/6</text>
  <rect x="68" y="162" width="70" height="10" rx="5" fill="#1B3A1C"/>
  <text x="103" y="171" text-anchor="middle" font-family="system-ui,sans-serif" font-size="7" font-weight="600" fill="#4CAF50">● 4 available</text>
  <rect x="145" y="162" width="44" height="10" rx="5" fill="#2A2A2A"/>
  <text x="167" y="171" text-anchor="middle" font-family="system-ui,sans-serif" font-size="7" fill="#A0A0A0">4th Ed.</text>

  <rect x="14" y="182" width="252" height="64" rx="12" fill="#1E1E1E" stroke="#2A2A2A" stroke-width=".5"/>
  <rect x="22" y="190" width="38" height="50" rx="7" fill="#00897B"/>
  <text x="41" y="212" text-anchor="middle" font-family="system-ui,sans-serif" font-size="7" font-weight="700" fill="rgba(255,255,255,.9)">Op. Syst</text>
  <text x="68" y="204" font-family="system-ui,sans-serif" font-size="9.5" font-weight="700" fill="#F0F0F0">Op. System Concepts</text>
  <text x="68" y="217" font-family="system-ui,sans-serif" font-size="8" fill="#A0A0A0">Silberschatz</text>
  <rect x="68" y="222" width="130" height="6" rx="3" fill="#2A2A2A"/>
  <rect x="68" y="222" width="32" height="6" rx="3" fill="#FFB74D"/>
  <text x="208" y="229" font-family="system-ui,sans-serif" font-size="8" font-weight="700" fill="#FFB74D">1/4</text>
  <rect x="68" y="232" width="70" height="10" rx="5" fill="#3A2800"/>
  <text x="103" y="241" text-anchor="middle" font-family="system-ui,sans-serif" font-size="7" font-weight="600" fill="#FFB74D">● 1 left</text>
  <rect x="145" y="232" width="44" height="10" rx="5" fill="#2A2A2A"/>
  <text x="167" y="241" text-anchor="middle" font-family="system-ui,sans-serif" font-size="7" fill="#A0A0A0">10th Ed.</text>

  <rect x="14" y="252" width="252" height="64" rx="12" fill="#1E1E1E" stroke="#2A2A2A" stroke-width=".5"/>
  <rect x="22" y="260" width="38" height="50" rx="7" fill="#C62828"/>
  <text x="41" y="282" text-anchor="middle" font-family="system-ui,sans-serif" font-size="7" font-weight="700" fill="rgba(255,255,255,.9)">Computer</text>
  <text x="68" y="274" font-family="system-ui,sans-serif" font-size="9.5" font-weight="700" fill="#F0F0F0">Computer Networks</text>
  <text x="68" y="287" font-family="system-ui,sans-serif" font-size="8" fill="#A0A0A0">Tanenbaum</text>
  <rect x="68" y="292" width="130" height="6" rx="3" fill="#2A2A2A"/>
  <rect x="68" y="292" width="97" height="6" rx="3" fill="#4CAF50"/>
  <text x="208" y="299" font-family="system-ui,sans-serif" font-size="8" font-weight="700" fill="#4CAF50">6/8</text>
  <rect x="68" y="302" width="70" height="10" rx="5" fill="#1B3A1C"/>
  <text x="103" y="311" text-anchor="middle" font-family="system-ui,sans-serif" font-size="7" font-weight="600" fill="#4CAF50">● 6 available</text>
  <rect x="145" y="302" width="44" height="10" rx="5" fill="#2A2A2A"/>
  <text x="167" y="311" text-anchor="middle" font-family="system-ui,sans-serif" font-size="7" fill="#A0A0A0">5th Ed.</text>

  <rect x="14" y="322" width="252" height="64" rx="12" fill="#1E1E1E" stroke="#2A2A2A" stroke-width=".5"/>
  <rect x="22" y="330" width="38" height="50" rx="7" fill="#6A1B9A"/>
  <text x="41" y="352" text-anchor="middle" font-family="system-ui,sans-serif" font-size="7" font-weight="700" fill="rgba(255,255,255,.9)">Database</text>
  <text x="68" y="344" font-family="system-ui,sans-serif" font-size="9.5" font-weight="700" fill="#F0F0F0">Database System Concepts</text>
  <text x="68" y="357" font-family="system-ui,sans-serif" font-size="8" fill="#A0A0A0">Korth</text>
  <rect x="68" y="362" width="130" height="6" rx="3" fill="#2A2A2A"/>
  <rect x="68" y="362" width="4" height="6" rx="3" fill="#EF5350"/>
  <text x="208" y="369" font-family="system-ui,sans-serif" font-size="8" font-weight="700" fill="#EF5350">0/3</text>
  <rect x="68" y="372" width="70" height="10" rx="5" fill="#3A0000"/>
  <text x="103" y="381" text-anchor="middle" font-family="system-ui,sans-serif" font-size="7" font-weight="600" fill="#EF5350">● Out of stock</text>
  <rect x="145" y="372" width="44" height="10" rx="5" fill="#2A2A2A"/>
  <text x="167" y="381" text-anchor="middle" font-family="system-ui,sans-serif" font-size="7" fill="#A0A0A0">7th Ed.</text>

  <rect x="14" y="392" width="252" height="64" rx="12" fill="#1E1E1E" stroke="#2A2A2A" stroke-width=".5"/>
  <rect x="22" y="400" width="38" height="50" rx="7" fill="#1565C0"/>
  <text x="41" y="422" text-anchor="middle" font-family="system-ui,sans-serif" font-size="7" font-weight="700" fill="rgba(255,255,255,.9)">Engineer</text>
  <text x="68" y="414" font-family="system-ui,sans-serif" font-size="9.5" font-weight="700" fill="#F0F0F0">Engineering Mathematics</text>
  <text x="68" y="427" font-family="system-ui,sans-serif" font-size="8" fill="#A0A0A0">Grewal</text>
  <rect x="68" y="432" width="130" height="6" rx="3" fill="#2A2A2A"/>
  <rect x="68" y="432" width="91" height="6" rx="3" fill="#4CAF50"/>
  <text x="208" y="439" font-family="system-ui,sans-serif" font-size="8" font-weight="700" fill="#4CAF50">7/10</text>
  <rect x="68" y="442" width="70" height="10" rx="5" fill="#1B3A1C"/>
  <text x="103" y="451" text-anchor="middle" font-family="system-ui,sans-serif" font-size="7" font-weight="600" fill="#4CAF50">● 7 available</text>
  <rect x="145" y="442" width="44" height="10" rx="5" fill="#2A2A2A"/>
  <text x="167" y="451" text-anchor="middle" font-family="system-ui,sans-serif" font-size="7" fill="#A0A0A0">44th Ed.</text>


  </g>
</svg>